<svg width="62" height="44" viewBox="0 0 62 44" fill="none" xmlns="http://www.w3.org/2000/svg">
<path d="M25.8567 19H24.5476V7.74231H30.8233V8.90504H25.8567V13.0246H30.523V14.1874H25.8567V19ZM36.0671 19.154C34.8197 19.154 33.8341 18.7741 33.1102 18.0144C32.3915 17.2546 32.0322 16.1997 32.0322 14.8496C32.0322 13.4892 32.3659 12.4086 33.0332 11.6078C33.7057 10.807 34.6066 10.4066 35.736 10.4066C36.7935 10.4066 37.6302 10.7557 38.2463 11.4538C38.8623 12.1468 39.1703 13.0631 39.1703 14.2028V15.0113H33.3566C33.3823 16.0021 33.6313 16.7541 34.1036 17.2675C34.581 17.7808 35.2509 18.0375 36.1133 18.0375C37.0219 18.0375 37.9203 17.8475 38.8084 17.4677V18.6073C38.3566 18.8024 37.928 18.941 37.5224 19.0231C37.122 19.1104 36.6369 19.154 36.0671 19.154ZM35.7206 11.4769C35.043 11.4769 34.5014 11.6976 34.0959 12.1391C33.6954 12.5806 33.4593 13.1915 33.3874 13.9718H37.7997C37.7997 13.1658 37.62 12.5498 37.2606 12.1237C36.9013 11.6925 36.388 11.4769 35.7206 11.4769Z" fill="#2A6F78"/>
<path d="M21.4589 30.4768C22.1926 29.7233 20.7998 27.0711 18.3481 24.5529C15.8964 22.0347 13.3142 20.6042 12.5806 21.3577C11.847 22.1112 13.2398 24.7634 15.6915 27.2816C18.1431 29.7998 20.7253 31.2304 21.4589 30.4768Z" fill="#2A6F78"/>
<path d="M21.4485 30.4782L14.9888 37.0882C13.8153 38.2832 12.2298 38.9537 10.5773 38.9537C8.92486 38.9537 7.3393 38.2832 6.16582 37.0882V37.0882C5.00238 35.8829 4.34961 34.2543 4.34961 32.5571C4.34961 30.8598 5.00238 29.2312 6.16582 28.0259L12.8558 21.1918" stroke="#2A6F78" stroke-width="0.5" stroke-miterlimit="10"/>
<path d="M56.1951 28.611L49.9778 22.2251L49.5294 21.7769C49.4369 21.764 49.3431 21.764 49.2507 21.7769C48.1599 21.7769 46.0632 23.1089 44.0514 25.1629C41.6275 27.6525 40.1974 30.3414 40.9367 31.0883L47.3358 37.6236C48.4993 38.8303 50.082 39.5128 51.7355 39.521C53.389 39.5291 54.9779 38.8623 56.1527 37.6672C57.3275 36.472 57.992 34.8465 58 33.1481C58.0079 31.4498 57.3587 29.8177 56.1951 28.611V28.611ZM44.4029 25.4865C46.4874 23.3703 48.4144 22.2624 49.2507 22.2624L49.4688 22.474C49.4688 23.196 48.6083 25.138 46.3177 27.4534C44.2332 29.582 42.3062 30.7024 41.4699 30.7024C41.3995 30.729 41.3222 30.729 41.2518 30.7024C40.973 30.3912 41.6517 28.2625 44.3665 25.4865H44.4029Z" fill="#2A6F78"/>
</svg>
