<svg width="25" height="44" viewBox="0 0 25 44" fill="none" xmlns="http://www.w3.org/2000/svg">
<path d="M19.6465 20.7427C7.75508 31.8637 -7.0551 22.4615 5.64706 12.1484C17.4844 1.11326 32.5648 9.62163 19.6465 20.7427Z" fill="#2A6F78"/>
<path d="M5.62915 19.574C7.27108 19.9352 8.98051 19.9095 10.6097 19.4993C12.2389 19.089 13.7389 18.3064 14.9801 17.2192C19.4664 13.4548 19.5925 8.33263 17.7728 8.12637C16.8539 8.02324 15.5567 11.3406 13.0162 13.9877C8.22363 18.9896 -0.694908 16.8754 5.62915 19.574Z" fill="white"/>
<path d="M12.7278 36.2984C7.32263 32.4825 10.2594 26.1914 15.4664 30.3855C20.8536 34.1842 18.2591 40.5268 12.7278 36.2984Z" fill="#2A6F78"/>
<path d="M12.1333 30.9011C12.0839 31.5299 12.2017 32.1605 12.4757 32.7344C12.7497 33.3083 13.1711 33.8069 13.7008 34.1841C15.5025 35.5764 17.7186 35.2842 17.7006 34.5966C17.7006 34.2529 16.2052 33.995 14.944 33.2387C12.5477 31.8121 12.89 28.3916 12.1333 30.9011Z" fill="white"/>
</svg>
