<svg width="51" height="44" viewBox="0 0 51 44" fill="none" xmlns="http://www.w3.org/2000/svg">
<path d="M2.72074 33.1332C4.22336 33.1332 5.44148 31.9258 5.44148 30.4364C5.44148 28.947 4.22336 27.7396 2.72074 27.7396C1.21812 27.7396 0 28.947 0 30.4364C0 31.9258 1.21812 33.1332 2.72074 33.1332Z" fill="#2A6F78"/>
<path d="M49.473 19.8143C50.3163 19.8143 50.9999 19.1366 50.9999 18.3007C50.9999 17.4649 50.3163 16.7872 49.473 16.7872C48.6297 16.7872 47.946 17.4649 47.946 18.3007C47.946 19.1366 48.6297 19.8143 49.473 19.8143Z" fill="#2A6F78"/>
<path d="M5.4415 9.50859C6.28481 9.50859 6.96844 8.83097 6.96844 7.99508C6.96844 7.15919 6.28481 6.48157 5.4415 6.48157C4.59819 6.48157 3.91455 7.15919 3.91455 7.99508C3.91455 8.83097 4.59819 9.50859 5.4415 9.50859Z" fill="#2A6F78"/>
<path d="M11.4382 30.7115C11.7142 30.7115 11.9379 30.4897 11.9379 30.2162C11.9379 29.9426 11.7142 29.7208 11.4382 29.7208C11.1622 29.7208 10.9385 29.9426 10.9385 30.2162C10.9385 30.4897 11.1622 30.7115 11.4382 30.7115Z" fill="white"/>
<path d="M32.2879 6.99066C32.5639 6.99066 32.7877 6.7689 32.7877 6.49533C32.7877 6.22177 32.5639 6 32.2879 6C32.0119 6 31.7882 6.22177 31.7882 6.49533C31.7882 6.7689 32.0119 6.99066 32.2879 6.99066Z" fill="#2A6F78"/>
<path d="M24.8476 8.3391V13.3062H16.38V18.0669H24.2368V21.1352C23.5841 20.4682 22.8122 19.927 21.9603 19.5391C21.234 19.2571 20.4635 19.1034 19.6837 19.085C18.3502 19.1929 17.0544 19.5773 15.8803 20.2133L14.5893 20.7637C14.2902 20.888 13.9696 20.9534 13.6454 20.9563C12.9004 20.8412 12.1886 20.5707 11.5569 20.1627C10.9252 19.7548 10.3879 19.2186 9.9807 18.5897V8.3391H24.8476ZM25.1946 7.99512H9.63367V18.7135C10.0886 19.387 10.6805 19.9588 11.3713 20.3924C12.0621 20.826 12.8367 21.1118 13.6454 21.2315C14.0128 21.2289 14.3762 21.1541 14.7142 21.0113C17.1296 20.0069 18.2956 19.3602 19.6837 19.3602C20.4257 19.3825 21.1583 19.5314 21.8492 19.8005C22.8898 20.3157 23.8298 21.0098 24.6255 21.8506V17.7229H16.727V13.5951H25.1946V7.99512Z" fill="#2A6F78"/>
<path d="M25.1946 28.2762V34H9.63367V18.7135C10.9246 20.2545 12.7847 21.8093 14.7142 21.0113C18.2262 19.5528 19.1146 18.8373 21.8492 19.8005C22.8898 20.3156 23.8298 21.0098 24.6255 21.8506V23.3641H16.727V28.2762H25.1946Z" fill="#2A6F78"/>
<path d="M41.283 14.2555V18.108L40.6445 18.9336C40.3554 18.6126 40.0292 18.3262 39.6728 18.0805C39.3845 17.881 39.0386 17.7796 38.6872 17.7916C37.424 17.7916 35.6056 18.8098 32.8709 20.7361L33.8843 19.4289L34.3146 18.8786H25.9858V14.2555H41.2553H41.283ZM41.6439 13.8564H25.6804V19.1675H33.6067L31.1497 22.3459C34.7866 19.6766 37.2436 18.0805 38.6872 18.0805C38.9673 18.0731 39.2432 18.1498 39.4785 18.3007C39.9228 18.6254 40.3239 19.0045 40.6723 19.4289L41.6439 18.1631V13.8564Z" fill="#2A6F78"/>
<path d="M42.0326 28.6889V34H25.1946V30.0373L31.1497 22.3459C35.5639 19.1125 38.243 17.4476 39.4785 18.3007C39.9228 18.6255 40.3239 19.0045 40.6723 19.429L33.5789 28.6889H42.0326Z" fill="#2A6F78"/>
<path d="M11.9658 23.6531C12.2494 23.6531 12.4794 23.4251 12.4794 23.144C12.4794 22.8628 12.2494 22.6349 11.9658 22.6349C11.6821 22.6349 11.4521 22.8628 11.4521 23.144C11.4521 23.4251 11.6821 23.6531 11.9658 23.6531Z" fill="white"/>
<path d="M16.3106 22.1395C16.4715 22.1395 16.6021 22.0102 16.6021 21.8506C16.6021 21.691 16.4715 21.5616 16.3106 21.5616C16.1496 21.5616 16.019 21.691 16.019 21.8506C16.019 22.0102 16.1496 22.1395 16.3106 22.1395Z" fill="white"/>
<path d="M21.7104 22.346C21.9864 22.346 22.2102 22.1242 22.2102 21.8507C22.2102 21.5771 21.9864 21.3553 21.7104 21.3553C21.4344 21.3553 21.2107 21.5771 21.2107 21.8507C21.2107 22.1242 21.4344 22.346 21.7104 22.346Z" fill="white"/>
<path d="M16.019 32.3902C16.295 32.3902 16.5187 32.1684 16.5187 31.8949C16.5187 31.6213 16.295 31.3995 16.019 31.3995C15.743 31.3995 15.5193 31.6213 15.5193 31.8949C15.5193 32.1684 15.743 32.3902 16.019 32.3902Z" fill="white"/>
<path d="M21.2107 30.7115C21.4867 30.7115 21.7104 30.4897 21.7104 30.2162C21.7104 29.9426 21.4867 29.7208 21.2107 29.7208C20.9347 29.7208 20.7109 29.9426 20.7109 30.2162C20.7109 30.4897 20.9347 30.7115 21.2107 30.7115Z" fill="white"/>
<path d="M32.399 29.2531C32.675 29.2531 32.8987 29.0313 32.8987 28.7578C32.8987 28.4842 32.675 28.2625 32.399 28.2625C32.123 28.2625 31.8993 28.4842 31.8993 28.7578C31.8993 29.0313 32.123 29.2531 32.399 29.2531Z" fill="white"/>
<path d="M37.3962 21.369C37.5572 21.369 37.6878 21.2397 37.6878 21.0801C37.6878 20.9205 37.5572 20.7911 37.3962 20.7911C37.2353 20.7911 37.1047 20.9205 37.1047 21.0801C37.1047 21.2397 37.2353 21.369 37.3962 21.369Z" fill="white"/>
<path d="M31.9687 24.4098C32.2063 24.4098 32.399 24.2189 32.399 23.9833C32.399 23.7477 32.2063 23.5568 31.9687 23.5568C31.731 23.5568 31.5383 23.7477 31.5383 23.9833C31.5383 24.2189 31.731 24.4098 31.9687 24.4098Z" fill="white"/>
<path d="M29.359 30.9868C29.5124 30.9868 29.6367 30.8636 29.6367 30.7116C29.6367 30.5596 29.5124 30.4364 29.359 30.4364C29.2057 30.4364 29.0814 30.5596 29.0814 30.7116C29.0814 30.8636 29.2057 30.9868 29.359 30.9868Z" fill="white"/>
<path d="M37.2575 31.3995C37.4184 31.3995 37.549 31.2702 37.549 31.1106C37.549 30.951 37.4184 30.8217 37.2575 30.8217C37.0965 30.8217 36.9659 30.951 36.9659 31.1106C36.9659 31.2702 37.0965 31.3995 37.2575 31.3995Z" fill="white"/>
</svg>
