<svg width="63" height="44" viewBox="0 0 63 44" fill="none" xmlns="http://www.w3.org/2000/svg">
<g clip-path="url(#clip0_77_5648)">
<path d="M25.4238 24.1149C24.6687 23.1639 23.5852 22.5137 22.3752 22.2853V22.1488C22.8849 22.069 23.3733 21.8916 23.8125 21.6268C24.2517 21.362 24.633 21.0151 24.9343 20.6059C25.5802 19.6193 25.8841 18.4562 25.8014 17.2881C25.867 16.4441 25.6991 15.5984 25.3154 14.8394C24.9316 14.0804 24.346 13.436 23.6198 12.9736C21.7565 12.0276 19.6781 11.5579 17.5785 11.6083C17.5801 12.9096 17.4536 14.2081 17.2009 15.4859C18.1269 15.4484 19.0484 15.6311 19.886 16.0184C20.2021 16.2121 20.4587 16.4857 20.6285 16.8102C20.7984 17.1347 20.8752 17.4979 20.8509 17.8616C20.888 18.2382 20.8236 18.6178 20.6642 18.9627C20.5048 19.3075 20.2558 19.6057 19.9419 19.8277C19.0906 20.2926 18.1176 20.5016 17.145 20.4284H15.327C14.6947 21.5001 13.9342 22.4947 13.0615 23.3912C12.0376 24.4793 10.8199 25.3767 9.46753 26.04V33.9181H18.026C20.1849 34.0536 22.329 33.487 24.1232 32.307C24.867 31.7465 25.4621 31.02 25.8587 30.1885C26.2554 29.357 26.4419 28.4447 26.4027 27.5282C26.4617 26.3172 26.1183 25.1199 25.4238 24.1149V24.1149ZM20.4034 29.3851C19.5288 29.9392 18.4923 30.1982 17.4527 30.1224H14.2922V24.2787H17.2848C20.0817 24.2787 21.3543 25.2072 21.3543 27.0094C21.392 27.4439 21.3258 27.881 21.1607 28.2862C20.9957 28.6914 20.7364 29.0536 20.4034 29.3442V29.3851Z" fill="#2A6F78"/>
<path d="M39.2684 33.9999H36.7372V18.08C36.7372 16.7146 36.7372 15.4995 36.863 14.3253C36.6393 14.5437 36.4015 14.7622 36.1219 14.9943C35.8422 15.2264 34.6115 16.2231 32.402 17.9708L31.0035 16.2368L37.0588 11.6628H39.2544L39.2684 33.9999Z" fill="#2A6F78"/>
<path d="M63.0001 34.0001H47.9668V31.8155L53.9941 25.9035C55.2799 24.683 56.4894 23.3882 57.6161 22.0259C58.1547 21.3304 58.5967 20.5683 58.9306 19.7595C59.2304 19.0065 59.3822 18.2052 59.3781 17.3974C59.405 16.874 59.3193 16.351 59.1266 15.8618C58.9339 15.3727 58.6385 14.9284 58.2594 14.5575C57.8432 14.1931 57.3567 13.9137 56.8283 13.7355C56.3 13.5573 55.7405 13.484 55.1828 13.5198C54.2631 13.5149 53.3496 13.6674 52.4838 13.9704C51.4673 14.3781 50.5234 14.9403 49.6869 15.6361L48.2884 13.9158C50.1936 12.2753 52.6426 11.3635 55.1828 11.3489C57.0138 11.2426 58.818 11.8183 60.2312 12.96C60.8372 13.5092 61.3128 14.1812 61.6244 14.9289C61.9361 15.6766 62.0763 16.4819 62.0352 17.2882C62.0162 18.7701 61.5965 20.2208 60.8185 21.4935C59.5291 23.4241 57.9924 25.186 56.2456 26.7364L51.2392 31.5288V31.6517H63.0001V34.0001Z" fill="#2A6F78"/>
<path d="M12.2364 22.5447C9.73323 25.1389 6.23711 26.5042 3.13256 24.6201C2.91043 24.4855 2.69571 24.3397 2.48927 24.1831L2.79693 24.4426C2.79693 24.4426 0.503481 27.3098 2.06974 30.0405L1.39849 29.6718C-0.167773 26.9411 2.1956 23.9101 2.1956 23.9101C1.04884 22.8946 0.303205 21.5187 0.0885576 20.0218C-0.12609 18.5248 0.203845 17.0018 1.02091 15.718C2.97742 13.1797 5.62228 11.2264 8.65642 10.0791C13.6069 8.30414 14.5159 5 14.5159 5C14.5159 5 19.1867 15.2947 12.2364 22.5447Z" fill="#2A6F78"/>
<path d="M2.79688 23.9101C4.34469 22.7757 5.75254 21.4699 6.99221 20.0188C8.25031 18.611 9.37376 17.0937 10.3485 15.4859C11.3161 13.8816 12.1441 12.2009 12.8237 10.4614C13.5035 8.67704 14.0686 6.85304 14.5159 5C14.348 5.92844 14.2082 6.87053 13.9984 7.79896C13.7887 8.7274 13.5509 9.64218 13.2013 10.5297C12.5737 12.3399 11.7682 14.0866 10.796 15.7453C8.85914 19.0686 6.11136 21.8733 2.79688 23.9101V23.9101Z" fill="white"/>
<path d="M8.9361 11.1577C9.06766 12.4332 9.4524 13.6714 10.0688 14.8032C9.74166 14.6556 9.46142 14.4245 9.25774 14.1342C9.07215 13.8398 8.92643 13.5231 8.82422 13.1921C8.66195 12.5174 8.70077 11.8115 8.9361 11.1577Z" fill="white"/>
<path d="M9.78918 18.0117C10.3605 18.0604 10.9266 18.1563 11.4813 18.2984C12.0172 18.432 12.5652 18.5144 13.1175 18.5442C12.8583 18.7046 12.5672 18.8094 12.2635 18.8518C11.9597 18.8942 11.6502 18.8731 11.3554 18.79C11.0704 18.7184 10.7938 18.6177 10.5304 18.4896C10.2667 18.3564 10.0182 18.1962 9.78918 18.0117V18.0117Z" fill="white"/>
<path d="M4.53105 14.4482C4.53639 14.9411 4.56907 15.4334 4.62894 15.9228C4.68267 16.4119 4.79533 16.8931 4.96457 17.3564C5.09282 17.8222 5.30599 18.2616 5.59387 18.6535C5.90549 19.0513 6.26728 19.4091 6.67067 19.7185C6.14167 19.5639 5.66084 19.2823 5.27222 18.8993C4.88876 18.5082 4.59341 18.0431 4.40519 17.5339C4.10551 16.519 4.14966 15.4367 4.53105 14.4482V14.4482Z" fill="white"/>
<path d="M9.49546 23.9101C8.66046 24.2017 7.78114 24.3541 6.89435 24.3607C6.42442 24.3666 5.95531 24.3208 5.4959 24.2241C5.26597 24.1869 5.04651 24.1034 4.85148 23.9788C4.65646 23.8542 4.49015 23.6913 4.36316 23.5005C4.72176 23.724 5.14048 23.8381 5.56582 23.8282C5.98509 23.8487 6.40515 23.8487 6.82443 23.8282C7.7474 23.8828 8.60045 23.8145 9.49546 23.9101Z" fill="white"/>
</g>
<defs>
<clipPath id="clip0_77_5648">
<rect width="63" height="44" fill="white"/>
</clipPath>
</defs>
</svg>
