<svg width="35" height="44" viewBox="0 0 35 44" fill="none" xmlns="http://www.w3.org/2000/svg">
<g clip-path="url(#clip0_245_5)">
<path d="M27.9 18.2504C27.4608 18.7082 26.9148 19.0437 26.3137 19.225C25.7125 19.4063 25.0761 19.4275 24.4647 19.2866L13.8765 30.13C14.0141 30.7561 13.9934 31.4078 13.8164 32.0234C13.6393 32.6391 13.3118 33.1983 12.8647 33.648C12.5177 34.0094 12.1038 34.2964 11.6473 34.4923C11.1909 34.6882 10.7009 34.7891 10.2059 34.7891C9.71096 34.7891 9.22097 34.6882 8.76448 34.4923C8.308 34.2964 7.89416 34.0094 7.54709 33.648C7.08082 33.2068 6.73942 32.6449 6.55885 32.0215C5.93923 31.8432 5.37563 31.5027 4.92356 31.0336C4.32719 30.4201 3.94975 29.619 3.85203 28.7592C3.75431 27.8993 3.94198 27.0308 4.38484 26.2935C4.82769 25.5562 5.49995 24.9929 6.29338 24.6944C7.08681 24.396 7.95524 24.3796 8.75885 24.648L14.7941 18.4673L15.2647 20.1059V22.3348L16.4412 19.5396V16.8047L19.1118 14.0697C18.959 13.5832 18.9022 13.0705 18.9447 12.5613C18.9872 12.0521 19.1281 11.5567 19.3592 11.1038C19.5903 10.6509 19.9071 10.2495 20.291 9.9231C20.6749 9.59668 21.1184 9.35167 21.5956 9.20234C22.0729 9.05301 22.5743 9.00233 23.0708 9.05324C23.5674 9.10416 24.049 9.25565 24.4879 9.49892C24.9267 9.74219 25.314 10.0724 25.6271 10.4703C25.9402 10.8682 26.1729 11.3259 26.3118 11.8167C26.929 11.9927 27.4893 12.3337 27.9353 12.8047C28.2859 13.1625 28.5634 13.5882 28.7517 14.057C28.94 14.5258 29.0352 15.0282 29.0319 15.5351C29.0287 16.042 28.9269 16.5431 28.7325 17.0093C28.5382 17.4755 28.2552 17.8974 27.9 18.2504V18.2504Z" fill="#2A6F78"/>
<path d="M16.1 2.16871C17.7941 1.12051 17.9588 2.38557 20.2176 1.85545C21.3941 1.59039 22.5706 0.228948 24.0412 0.301237C25.2176 0.301237 26.3235 1.75907 27.6882 2.22895C28.8647 2.62654 30.5235 2.13256 31.7235 2.95184C32.7353 3.62654 33.0176 5.36148 34.0764 6.44582" stroke="#2A6F78" stroke-width="0.5" stroke-linecap="round" stroke-linejoin="round"/>
<path d="M16.3823 41.1845C14.9353 42.0882 14.7235 40.8472 12.7823 41.293C11.8176 41.5219 10.7706 42.8592 9.51176 42.799C8.47646 42.799 7.57058 41.3894 6.40587 40.9797C5.41764 40.6303 3.88823 41.2086 2.87646 40.5098C1.8647 39.8111 1.85293 38.2689 0.970581 37.3773" stroke="#2A6F78" stroke-width="0.5" stroke-linecap="round" stroke-linejoin="round"/>
</g>
<defs>
<clipPath id="clip0_245_5">
<rect width="33.6471" height="44" fill="white" transform="translate(0.676514)"/>
</clipPath>
</defs>
</svg>
